<svg width="71" height="71" viewBox="0 0 71 71" fill="none" xmlns="http://www.w3.org/2000/svg">
<g id="Clip path group">
<mask id="mask0_58_2493" style="mask-type:luminance" maskUnits="userSpaceOnUse" x="0" y="0" width="71" height="71">
<g id="SvgjsClipPath1002">
<path id="Vector" d="M0 0H70.0184V70.0184H0V0Z" fill="white"/>
</g>
</mask>
<g mask="url(#mask0_58_2493)">
<g id="Group">
<g id="Clip path group_2">
<mask id="mask1_58_2493" style="mask-type:luminance" maskUnits="userSpaceOnUse" x="0" y="0" width="71" height="71">
<g id="SvgjsClipPath10004cd058f5-9d0b-4cd3-84ac-836045ffce40">
<path id="Vector_2" d="M0 0H70.0184V70.0184H0V0Z" fill="white"/>
</g>
</mask>
<g mask="url(#mask1_58_2493)">
<g id="Group_2">
<path id="Vector_3" d="M70.0182 35.0085C70.0186 49.1685 61.489 61.9345 48.407 67.3535C35.3249 72.7725 20.2667 69.7775 10.2539 59.7649C0.241133 49.7524 -2.75426 34.6942 2.66447 21.612C8.0832 8.52983 20.8489 3.6264e-09 35.0089 0C54.3437 0.000110304 70.0177 15.6738 70.0182 35.0085Z" fill="black"/>
</g>
</g>
</g>
<g id="Clip path group_3">
<mask id="mask2_58_2493" style="mask-type:luminance" maskUnits="userSpaceOnUse" x="0" y="0" width="71" height="71">
<g id="SvgjsClipPath10004cd058f5-9d0b-4cd3-84ac-836045ffce40_2">
<path id="Vector_4" d="M0 0H70.0184V70.0184H0V0Z" fill="white"/>
</g>
</mask>
<g mask="url(#mask2_58_2493)">
<g id="Group_3">
<path id="Vector_5" d="M15.3726 34.3219C12.877 31.998 10.8618 30.2397 10.6711 30.2871C6.74294 31.2918 5.94417 29.6593 7.20115 28.0513C8.63611 26.2147 14.0124 23.6318 13.1799 28.1041C13.0902 28.5878 11.8122 28.8491 11.8262 28.7295C11.9227 27.9039 11.8178 26.9 10.741 26.772C8.6413 26.5209 6.5414 30.6829 11.1525 29.3215C11.8606 29.1122 15.8402 32.97 15.8402 32.97C15.6336 33.4014 15.4767 33.855 15.3726 34.3219ZM21.4776 39.819C19.1943 38.8532 17.2552 37.2045 16.2948 35.122C14.8723 35.2938 14.48 36.692 14.48 36.692C15.1563 40.754 20.2154 45.7268 27.1437 47.4398C27.8773 48.7724 28.3983 50.1037 28.4602 51.2748C28.6212 54.3269 24.2959 55.636 21.8593 54.4549C23.2353 54.7192 24.749 52.5456 23.754 53.0861C21.3371 54.3974 19.5337 51.563 19.3175 49.6437C19.1246 47.8952 16.6296 53.9346 20.8462 55.5869C22.9131 56.3972 25.6726 55.9412 27.7902 54.3085C32.3921 50.7605 28.0779 44.6577 24.1166 40.4819C24.1176 40.4813 23.1676 40.4679 21.4776 39.819ZM59.9292 43.5342C53.2087 43.5342 51.2956 38.3343 51.2956 38.3343C50.3117 39.4438 49.2621 40.4932 48.1524 41.4768C48.4454 42.2862 49.0568 43.3524 50.2665 43.4129C47.7647 45.8412 43.3007 44.9841 43.3007 44.9841L43.3176 44.9681C39.1031 47.385 34.925 48.2228 31.1098 48.0284C29.8656 44.7007 27.4145 41.9916 26.1721 40.7642C28.4722 40.7352 30.7181 39.9676 32.3981 38.2438C27.4597 40.7694 19.1616 38.3297 17.0071 34.186C18.4113 24.9927 29.7907 22.3529 29.7907 22.3529C29.7907 22.3529 32.1011 17.8637 39.618 16.6802C39.3765 20.6275 40.6681 22.835 40.6681 22.835C50.2669 26.8083 51.5422 35.3931 51.5422 35.3931C51.5422 35.3931 53.3575 29.3103 60.1943 27.8386C60.8135 34.2595 58.6062 36.1779 58.6062 36.1779C58.6062 36.1779 61.5971 39.6106 59.9292 43.5342ZM22.4068 32.9506C22.4522 32.7763 22.4875 32.5995 22.5124 32.4211C22.4135 32.6069 22.2252 32.7279 22.0151 32.7407C21.6487 32.7407 21.3527 32.3284 21.3527 31.8219C21.3527 31.3153 21.6487 30.9031 22.0151 30.9031C22.2063 30.9115 22.3814 31.0128 22.4841 31.1743C22.3668 30.6412 22.1046 30.2581 21.7292 30.1596C21.0018 29.9695 20.1257 30.9101 19.7718 32.2607C19.4178 33.6114 19.7228 34.8612 20.4493 35.0529C21.1758 35.2447 22.0526 34.3013 22.4068 32.9506ZM30.2073 33.1146C30.2049 33.0677 30.1993 33.0219 30.1955 32.9748C30.0357 33.4877 29.6692 33.8475 29.2414 33.8475C28.6675 33.8475 28.2027 33.2015 28.2027 32.4057C28.2027 31.6099 28.6673 30.9634 29.2414 30.9634C29.3735 30.9644 29.5033 30.9987 29.6187 31.0633C29.202 30.3711 28.6078 29.9471 27.97 29.98C26.8271 30.04 25.975 31.538 26.0661 33.3289C26.1571 35.1198 27.162 36.5228 28.305 36.4649C29.4479 36.407 30.2994 34.9067 30.2073 33.1146Z" fill="#51A8DB"/>
</g>
</g>
</g>
<g id="Clip path group_4">
<mask id="mask3_58_2493" style="mask-type:luminance" maskUnits="userSpaceOnUse" x="0" y="0" width="71" height="71">
<g id="SvgjsClipPath10004cd058f5-9d0b-4cd3-84ac-836045ffce40_3">
<path id="Vector_6" d="M0 0H70.0184V70.0184H0V0Z" fill="white"/>
</g>
</mask>
<g mask="url(#mask3_58_2493)">
<g id="Group_4">
<path id="Vector_7" d="M25.2171 44.4815C25.9244 45.4253 26.5689 46.4145 27.1464 47.4429C20.2153 45.7305 15.1562 40.7547 14.4799 36.6919C17.2721 41.2305 21.1232 43.5541 25.2171 44.4815ZM57.3293 36.2503C58.372 34.9171 58.9115 33.2591 58.8532 31.5675C57.8334 31.8876 56.8524 32.3201 55.9281 32.8569C56.7815 31.9845 57.7317 31.2124 58.7603 30.5556C58.7221 30.3243 58.6868 30.1919 58.6868 30.1919C58.6868 30.1919 54.1652 31.5655 51.3606 37.0275C49.7749 29.9728 38.962 26.24 39.7851 27.9738C41.1572 30.8632 42.7277 35.9884 39.8133 43.1143C39.923 41.1957 39.4266 38.3624 36.8733 34.8783C38.2012 39.5411 37.095 42.6299 36.1742 44.2063C34.0139 44.728 31.7983 44.9858 29.5759 44.9741C30.1886 45.9369 30.7021 46.9594 31.1085 48.0259C34.9236 48.2207 39.1018 47.3838 43.317 44.9669L43.3 44.9829C43.3 44.9829 47.7641 45.8399 50.2658 43.4117C49.0562 43.3518 48.4448 42.2849 48.1518 41.4756C49.2618 40.4924 50.3117 39.4435 51.2959 38.3344C52.2801 37.2253 53.209 43.5343 59.9296 43.5343C59.9292 43.5341 60.567 39.4036 57.3293 36.2503Z" fill="#3361E1"/>
</g>
</g>
</g>
</g>
</g>
</g>
</svg>
