<svg width="535" height="200" viewBox="0 0 535 200" fill="none" xmlns="http://www.w3.org/2000/svg">
<mask id="mask0_7_132815" style="mask-type:alpha" maskUnits="userSpaceOnUse" x="0" y="0" width="535" height="200">
<rect width="535" height="200" transform="matrix(-1 0 0 1 535 0)" fill="#D9D9D9"/>
</mask>
<g mask="url(#mask0_7_132815)">
<path d="M0.500061 305.5C0.500061 459.035 124.965 583.5 278.5 583.5C432.035 583.5 556.5 459.035 556.5 305.5C556.5 151.965 432.035 27.5 278.5 27.5C124.965 27.5 0.500061 151.965 0.500061 305.5Z" stroke="#0575E6"/>
<path d="M81.5001 279.5C81.5001 433.035 205.965 557.5 359.5 557.5C513.035 557.5 637.5 433.035 637.5 279.5C637.5 125.965 513.035 1.5 359.5 1.5C205.965 1.5 81.5001 125.965 81.5001 279.5Z" stroke="#0575E6"/>
</g>
</svg>
